<!-- purple Background and white k by chatgpt -->
<svg xmlns="http://www.w3.org/2000/svg" viewBox="0 0 100 100" width="100" height="100" fill="none">
    <!-- Background Circle -->
    <circle cx="50" cy="50" r="48" fill="#6200EA" stroke="#3700B3" stroke-width="4" />

    <!-- Letter 'K' -->
    <path d="M30 20 L30 80 Q30 90 40 90 Q50 90 50 80 L50 60 L70 80 Q80 90 90 80 L60 50 L90 20 Q80 10 70 20 L50 40 L50 20 Q50 10 40 10 Q30 10 30 20 Z" fill="white" />
</svg>

<!-- ===================================================== -->

<!-- big blue k no background by claude ai-->
<svg xmlns="http://www.w3.org/2000/svg" viewBox="0 0 200 300">
    <!-- Main K shape -->
    <path d="M40 20 L40 280" stroke="#2563eb" stroke-width="20" stroke-linecap="round"/>

    <!-- Diagonal strokes -->
    <path d="M40 150 L160 20" stroke="#3b82f6" stroke-width="20" stroke-linecap="round"/>
    <path d="M40 150 L160 280" stroke="#60a5fa" stroke-width="20" stroke-linecap="round"/>

    <!-- Decorative elements -->
    <circle cx="40" cy="150" r="15" fill="#1d4ed8"/>
    <circle cx="160" cy="20" r="12" fill="#3b82f6"/>
    <circle cx="160" cy="280" r="12" fill="#60a5fa"/>

    <!-- Abstract decorative lines -->
    <path d="M65 150 C80 150, 90 140, 100 130" stroke="#93c5fd" stroke-width="4" fill="none"/>
    <path d="M65 150 C80 150, 90 160, 100 170" stroke="#93c5fd" stroke-width="4" fill="none"/>

    <!-- Additional flourishes -->
    <circle cx="100" cy="130" r="4" fill="#93c5fd"/>
    <circle cx="100" cy="170" r="4" fill="#93c5fd"/>
</svg>

<!-- ===================================================== -->
<!-- colorFull k by perplexity -->
<svg width="200" height="200"
    xmlns="http://www.w3.org/2000/svg">
    <defs>
        <linearGradient id="gradient" x1="0%" y1="0%" x2="100%" y2="100%">
            <stop offset="0%" style="stop-color:#6a5acd; stop-opacity:1" />
            <stop offset="100%" style="stop-color:#ff69b4; stop-opacity:1" />
        </linearGradient>
        <linearGradient id="bgGradient" x1="0%" y1="0%" x2="100%" y2="100%">
            <stop offset="0%" style="stop-color:#ffefba; stop-opacity:1" />
            <stop offset="100%" style="stop-color:#ffffff; stop-opacity:1" />
        </linearGradient>
    </defs>
    <!-- Text Element -->
    <text x="50%" y="50%" font-family="Arial" font-size="150" fill="url(#gradient)" text-anchor="middle" alignment-baseline="middle" stroke="#000" stroke-width="2">
        K
    </text>
</svg>

